<svg width="17" height="22" viewBox="0 0 17 22" fill="none" xmlns="http://www.w3.org/2000/svg">
<path d="M17 13.9959C17 18.2627 13.1927 21.7222 8.5 21.7222C3.80729 21.7222 0 18.2627 0 13.9959C0 9.44084 5.58875 2.57263 7.70312 0.140771C7.79474 0.0191453 7.95889 -0.0304238 8.10678 0.0188741C8.25468 0.0681719 8.35121 0.204633 8.34417 0.354449C8.16354 2.38947 8.2875 6.74443 12.0913 8.91512C12.2494 9.01779 12.4641 8.98177 12.5765 8.83372C13.0532 8.16113 13.3288 7.37646 13.3733 6.56467C13.3819 6.41137 13.4968 6.28267 13.6537 6.25089C13.8105 6.2191 13.9701 6.29216 14.0427 6.429C15.6613 8.97957 17 11.7642 17 13.9959Z" fill="#FF7F00"/>
<path d="M2.83325 16.5866C2.83325 19.425 5.16036 21.7223 8.0277 21.7223C10.895 21.7223 13.2221 19.425 13.2221 16.5866C13.2221 13.7482 10.2128 9.55021 8.7757 7.71086C8.68721 7.57794 8.52458 7.52263 8.37783 7.57553C8.23107 7.62844 8.13608 7.77663 8.14544 7.93808C8.19738 9.3807 7.95497 11.8223 5.94646 13.1495C5.86761 13.2039 5.77085 13.2223 5.67863 13.2006C5.58641 13.1788 5.50676 13.1186 5.45818 13.0341C5.28362 12.7228 5.16619 12.3804 5.11188 12.0243C5.09565 11.8632 4.97833 11.7332 4.82499 11.7063C4.67166 11.6794 4.51991 11.7623 4.45392 11.9089C3.54316 13.5066 2.83325 15.2053 2.83325 16.5866Z" fill="#FFDA00"/>
<path d="M11.3334 19.229C11.3182 19.9088 11.0101 20.5548 10.4779 21.0229C9.94567 21.491 9.2335 21.7423 8.50008 21.7209C7.76667 21.7423 7.05449 21.491 6.52226 21.0229C5.99003 20.5548 5.68198 19.9088 5.66675 19.229C5.66675 17.9973 6.9718 16.2469 7.81321 15.2476C7.89744 15.1354 8.04955 15.0856 8.19114 15.1238C8.33273 15.162 8.43219 15.2797 8.43826 15.4163C8.44093 16.2009 8.81813 16.9443 9.46857 17.4467C9.55378 17.5147 9.66951 17.5398 9.77839 17.5137C9.88727 17.4877 9.97551 17.414 10.0146 17.3163C10.0566 17.1937 10.174 17.1065 10.3122 17.0954C10.4505 17.0842 10.5824 17.1513 10.6465 17.2653C11.0374 17.8614 11.2726 18.5338 11.3334 19.229Z" fill="white"/>
</svg>
