    <svg
      width="80"
      height="34"
      viewBox="0 0 109 46"
      fill="none"
      xmlns="http://www.w3.org/2000/svg"
    >
      <path
        fill-rule="evenodd"
        clip-rule="evenodd"
        d="M64.5899 42.7062C64.9639 42.7062 65.2689 42.6382 65.5039 42.5012C65.7399 42.3642 65.9319 42.2112 66.0819 42.0412C66.2459 41.8492 66.3769 41.6282 66.4739 41.3772C66.7209 40.3282 66.9809 39.2462 67.2539 38.1312C67.5269 37.0162 67.7829 35.9342 68.0219 34.8852H68.4039L69.9739 41.3772C70.0559 41.6282 70.1799 41.8492 70.3439 42.0412C70.4859 42.2112 70.6769 42.3642 70.9159 42.5012C71.1559 42.6382 71.4619 42.7062 71.8359 42.7062H72.2179C72.5909 42.7062 72.9039 42.6382 73.1539 42.5012C73.4049 42.3642 73.6079 42.2112 73.7649 42.0412C73.9519 41.8492 74.1019 41.6282 74.2139 41.3772L77.2879 29.3242C77.3029 29.2652 77.3169 29.1992 77.3319 29.1252C77.3469 29.0662 77.3589 28.9962 77.3659 28.9142C77.3739 28.8332 77.3769 28.7482 77.3769 28.6602C77.3769 28.4972 77.3449 28.3312 77.2819 28.1612C77.2179 27.9912 77.1209 27.8342 76.9899 27.6902C76.8589 27.5462 76.6949 27.4282 76.4969 27.3362C76.2989 27.2432 76.0689 27.1972 75.8069 27.1972C75.4629 27.1972 75.1839 27.2772 74.9709 27.4352C74.7579 27.5942 74.5919 27.7702 74.4719 27.9622C74.3369 28.1912 74.2369 28.4452 74.1689 28.7262C73.8399 30.1742 73.5109 31.6492 73.1819 33.1522C72.8529 34.6542 72.5319 36.1262 72.2179 37.5662H71.8359L69.9069 28.7262C69.8619 28.5192 69.7869 28.3252 69.6819 28.1442C69.5779 27.9642 69.4529 27.8082 69.3069 27.6792C69.1609 27.5502 68.9959 27.4482 68.8129 27.3752C68.6299 27.3012 68.4339 27.2642 68.2239 27.2642C67.8059 27.2642 67.4469 27.4022 67.1469 27.6792C66.8479 27.9562 66.6459 28.3052 66.5419 28.7262C66.3849 29.4132 66.2219 30.1312 66.0539 30.8812C65.8859 31.6302 65.7169 32.3872 65.5489 33.1522C65.3809 33.9162 65.2139 34.6732 65.0499 35.4222C64.8849 36.1722 64.7319 36.8872 64.5899 37.5662H64.2089L62.2569 28.7262C62.1899 28.4452 62.0889 28.1912 61.9539 27.9622C61.8339 27.7702 61.6679 27.5942 61.4549 27.4352C61.2419 27.2772 60.9629 27.1972 60.6189 27.1972C60.3569 27.1972 60.1279 27.2432 59.9289 27.3362C59.7309 27.4282 59.5669 27.5462 59.4359 27.6902C59.3049 27.8342 59.2079 27.9912 59.1439 28.1612C59.0809 28.3312 59.0489 28.4972 59.0489 28.6602C59.0489 28.7482 59.0529 28.8332 59.0599 28.9142C59.0679 28.9962 59.0789 29.0662 59.0939 29.1252C59.1089 29.1992 59.1239 29.2652 59.1389 29.3242L62.1669 41.3772C62.2789 41.6282 62.4329 41.8492 62.6269 42.0412C62.7919 42.2112 63.0029 42.3642 63.2609 42.5012C63.5189 42.6382 63.8349 42.7062 64.2089 42.7062H64.5899ZM83.7559 42.7062C83.8969 42.7062 84.1149 42.6952 84.4099 42.6722C84.7059 42.6502 85.0349 42.5902 85.3969 42.4932C85.7589 42.3962 86.1339 42.2492 86.5219 42.0512C86.9099 41.8532 87.2609 41.5822 87.5749 41.2392C87.8899 40.8952 88.1479 40.4662 88.3509 39.9502C88.5549 39.4352 88.6559 38.8082 88.6559 38.0692V31.3702C88.6559 30.6532 88.5549 30.0432 88.3509 29.5392C88.1479 29.0352 87.8899 28.6152 87.5749 28.2792C87.2609 27.9432 86.9099 27.6792 86.5219 27.4892C86.1339 27.2992 85.7589 27.1552 85.3969 27.0582C85.0349 26.9612 84.7059 26.9012 84.4099 26.8782C84.1149 26.8562 83.8969 26.8452 83.7559 26.8452H83.3789C83.2389 26.8452 83.0209 26.8562 82.7249 26.8782C82.4289 26.9012 82.0989 26.9612 81.7329 27.0582C81.3669 27.1552 80.9899 27.2992 80.6019 27.4892C80.2139 27.6792 79.8589 27.9432 79.5379 28.2792C79.2159 28.6152 78.9519 29.0352 78.7449 29.5392C78.5379 30.0432 78.4349 30.6532 78.4349 31.3702V38.0692C78.4349 38.8082 78.5379 39.4352 78.7449 39.9502C78.9519 40.4662 79.2159 40.8952 79.5379 41.2392C79.8589 41.5822 80.2139 41.8532 80.6019 42.0512C80.9899 42.2492 81.3669 42.3962 81.7329 42.4932C82.0989 42.5902 82.4289 42.6502 82.7249 42.6722C83.0209 42.6952 83.2389 42.7062 83.3789 42.7062H83.7559ZM83.7329 39.8862C83.3809 39.8862 83.1099 39.8122 82.9199 39.6622C82.7299 39.5132 82.5879 39.3452 82.4949 39.1582C82.3869 38.9492 82.3259 38.7062 82.3119 38.4292V31.1222C82.3259 30.8532 82.3869 30.6102 82.4949 30.3932C82.5879 30.2142 82.7299 30.0482 82.9199 29.8942C83.1099 29.7412 83.3809 29.6652 83.7329 29.6652C84.0769 29.6652 84.3419 29.7412 84.5289 29.8942C84.7149 30.0482 84.8549 30.2142 84.9489 30.3932C85.0489 30.6102 85.1099 30.8532 85.1319 31.1222V38.4292C85.1099 38.7062 85.0489 38.9492 84.9489 39.1582C84.8549 39.3452 84.7149 39.5132 84.5289 39.6622C84.3419 39.8122 84.0769 39.8862 83.7329 39.8862V39.8862ZM95.6069 42.7062C95.9809 42.7062 96.2859 42.6382 96.5219 42.5012C96.7569 42.3642 96.9499 42.2112 97.0989 42.0412C97.2639 41.8492 97.3949 41.6282 97.4919 41.3772C97.7389 40.3282 97.9979 39.2462 98.2709 38.1312C98.5439 37.0162 98.7999 35.9342 99.0399 34.8852H99.4209L100.991 41.3772C101.074 41.6282 101.197 41.8492 101.362 42.0412C101.504 42.2112 101.694 42.3642 101.934 42.5012C102.173 42.6382 102.48 42.7062 102.853 42.7062H103.235C103.609 42.7062 103.921 42.6382 104.171 42.5012C104.422 42.3642 104.626 42.2112 104.783 42.0412C104.97 41.8492 105.119 41.6282 105.231 41.3772L108.305 29.3242C108.32 29.2652 108.335 29.1992 108.35 29.1252C108.365 29.0662 108.376 28.9962 108.383 28.9142C108.391 28.8332 108.395 28.7482 108.395 28.6602C108.395 28.4972 108.363 28.3312 108.299 28.1612C108.236 27.9912 108.139 27.8342 108.008 27.6902C107.877 27.5462 107.712 27.4282 107.514 27.3362C107.316 27.2432 107.086 27.1972 106.824 27.1972C106.48 27.1972 106.202 27.2772 105.989 27.4352C105.776 27.5942 105.609 27.7702 105.489 27.9622C105.355 28.1912 105.254 28.4452 105.187 28.7262C104.858 30.1742 104.529 31.6492 104.199 33.1522C103.87 34.6542 103.549 36.1262 103.235 37.5662H102.853L100.924 28.7262C100.879 28.5192 100.805 28.3252 100.7 28.1442C100.595 27.9642 100.47 27.8082 100.324 27.6792C100.178 27.5502 100.014 27.4482 99.8309 27.3752C99.6469 27.3012 99.4509 27.2642 99.2419 27.2642C98.8229 27.2642 98.4639 27.4022 98.1649 27.6792C97.8659 27.9562 97.6639 28.3052 97.5589 28.7262C97.4019 29.4132 97.2389 30.1312 97.0709 30.8812C96.9029 31.6302 96.7349 32.3872 96.5659 33.1522C96.3979 33.9162 96.2319 34.6732 96.0669 35.4222C95.9029 36.1722 95.7489 36.8872 95.6069 37.5662H95.2259L93.2739 28.7262C93.2069 28.4452 93.1059 28.1912 92.9709 27.9622C92.8519 27.7702 92.6849 27.5942 92.4719 27.4352C92.2589 27.2772 91.9809 27.1972 91.6369 27.1972C91.3749 27.1972 91.1449 27.2432 90.9469 27.3362C90.7489 27.4282 90.5839 27.5462 90.4529 27.6902C90.3219 27.8342 90.2249 27.9912 90.1619 28.1612C90.0979 28.3312 90.0659 28.4972 90.0659 28.6602C90.0659 28.7482 90.0699 28.8332 90.0769 28.9142C90.0849 28.9962 90.0959 29.0662 90.1109 29.1252C90.1259 29.1992 90.1409 29.2652 90.1559 29.3242L93.1839 41.3772C93.2969 41.6282 93.4499 41.8492 93.6439 42.0412C93.8089 42.2112 94.0199 42.3642 94.2779 42.5012C94.5359 42.6382 94.8519 42.7062 95.2259 42.7062H95.6069Z"
        fill="white"
      />
      <mask
        id="mask0_0_777"
        style="mask-type: alpha"
        maskUnits="userSpaceOnUse"
        x="59"
        y="26"
        width="50"
        height="17"
      >
        <path
          fill-rule="evenodd"
          clip-rule="evenodd"
          d="M83.379 26.8446C83.238 26.8446 83.021 26.8566 82.725 26.8786V26.8786C82.429 26.9016 82.099 26.9606 81.733 27.0586V27.0586C81.367 27.1556 80.99 27.2986 80.602 27.4896V27.4896C80.214 27.6796 79.859 27.9426 79.538 28.2786V28.2786C79.216 28.6146 78.952 29.0346 78.745 29.5396V29.5396C78.538 30.0436 78.435 30.6536 78.435 31.3696V31.3696V38.0686C78.435 38.8086 78.538 39.4356 78.745 39.9506V39.9506C78.952 40.4666 79.216 40.8956 79.538 41.2386V41.2386C79.859 41.5826 80.214 41.8536 80.602 42.0516V42.0516C80.99 42.2496 81.367 42.3956 81.733 42.4926V42.4926C82.099 42.5906 82.429 42.6506 82.725 42.6726V42.6726C83.021 42.6946 83.238 42.7066 83.379 42.7066V42.7066H83.756C83.896 42.7066 84.115 42.6946 84.41 42.6726V42.6726C84.706 42.6506 85.035 42.5906 85.396 42.4926V42.4926C85.759 42.3956 86.135 42.2496 86.522 42.0516V42.0516C86.91 41.8536 87.261 41.5826 87.575 41.2386V41.2386C87.889 40.8956 88.148 40.4666 88.351 39.9506V39.9506C88.555 39.4356 88.656 38.8086 88.656 38.0686V38.0686V31.3696C88.656 30.6536 88.555 30.0436 88.351 29.5396V29.5396C88.148 29.0346 87.889 28.6146 87.575 28.2786V28.2786C87.261 27.9426 86.91 27.6796 86.522 27.4896V27.4896C86.135 27.2986 85.759 27.1556 85.396 27.0586V27.0586C85.035 26.9606 84.706 26.9016 84.41 26.8786V26.8786C84.115 26.8566 83.896 26.8446 83.756 26.8446V26.8446H83.379ZM82.92 39.6626C82.73 39.5136 82.588 39.3446 82.495 39.1576V39.1576C82.387 38.9486 82.326 38.7056 82.312 38.4296V38.4296V31.1216C82.326 30.8526 82.387 30.6106 82.495 30.3936V30.3936C82.588 30.2146 82.73 30.0476 82.92 29.8946V29.8946C83.11 29.7406 83.381 29.6646 83.732 29.6646V29.6646C84.077 29.6646 84.343 29.7406 84.529 29.8946V29.8946C84.715 30.0476 84.856 30.2146 84.948 30.3936V30.3936C85.049 30.6106 85.11 30.8526 85.132 31.1216V31.1216V38.4296C85.11 38.7056 85.049 38.9486 84.948 39.1576V39.1576C84.856 39.3446 84.715 39.5136 84.529 39.6626V39.6626C84.343 39.8116 84.077 39.8866 83.732 39.8866V39.8866C83.381 39.8866 83.11 39.8116 82.92 39.6626V39.6626ZM105.989 27.4356C105.775 27.5946 105.609 27.7696 105.489 27.9616V27.9616C105.355 28.1916 105.254 28.4456 105.187 28.7256V28.7256C104.857 30.1736 104.529 31.6486 104.199 33.1516V33.1516C103.871 34.6546 103.549 36.1266 103.234 37.5666V37.5666H102.854L100.924 28.7256C100.879 28.5196 100.805 28.3256 100.7 28.1446V28.1446C100.595 27.9636 100.47 27.8086 100.324 27.6796V27.6796C100.178 27.5506 100.013 27.4486 99.831 27.3746V27.3746C99.647 27.3006 99.451 27.2646 99.241 27.2646V27.2646C98.823 27.2646 98.464 27.4026 98.165 27.6796V27.6796C97.866 27.9566 97.663 28.3056 97.559 28.7256V28.7256C97.402 29.4136 97.24 30.1316 97.071 30.8806V30.8806C96.903 31.6296 96.735 32.3866 96.566 33.1516V33.1516C96.398 33.9166 96.232 34.6726 96.067 35.4226V35.4226C95.902 36.1726 95.749 36.8866 95.607 37.5666V37.5666H95.226L93.274 28.7256C93.207 28.4456 93.106 28.1916 92.971 27.9616V27.9616C92.851 27.7696 92.686 27.5946 92.472 27.4356V27.4356C92.259 27.2766 91.981 27.1976 91.636 27.1976V27.1976C91.374 27.1976 91.145 27.2436 90.947 27.3366V27.3366C90.749 27.4276 90.584 27.5466 90.453 27.6906V27.6906C90.322 27.8346 90.225 27.9916 90.161 28.1616V28.1616C90.098 28.3306 90.066 28.4976 90.066 28.6606V28.6606C90.066 28.7486 90.07 28.8326 90.077 28.9146V28.9146C90.085 28.9956 90.096 29.0656 90.111 29.1256V29.1256C90.126 29.1996 90.141 29.2656 90.156 29.3246V29.3246L93.184 41.3776C93.297 41.6286 93.45 41.8496 93.644 42.0416V42.0416C93.809 42.2116 94.02 42.3646 94.278 42.5016V42.5016C94.536 42.6376 94.852 42.7066 95.226 42.7066V42.7066H95.607C95.981 42.7066 96.286 42.6376 96.521 42.5016V42.5016C96.757 42.3646 96.95 42.2116 97.099 42.0416V42.0416C97.264 41.8496 97.394 41.6286 97.492 41.3776V41.3776C97.738 40.3286 97.998 39.2456 98.271 38.1306V38.1306C98.545 37.0156 98.8 35.9336 99.04 34.8856V34.8856H99.421L100.992 41.3776C101.074 41.6286 101.197 41.8496 101.362 42.0416V42.0416C101.504 42.2116 101.695 42.3646 101.934 42.5016V42.5016C102.173 42.6376 102.479 42.7066 102.854 42.7066V42.7066H103.234C103.609 42.7066 103.921 42.6376 104.171 42.5016V42.5016C104.422 42.3646 104.626 42.2116 104.783 42.0416V42.0416C104.97 41.8496 105.119 41.6286 105.232 41.3776V41.3776L108.305 29.3246C108.32 29.2656 108.335 29.1996 108.35 29.1256V29.1256C108.365 29.0656 108.376 28.9956 108.383 28.9146V28.9146C108.391 28.8326 108.394 28.7486 108.394 28.6606V28.6606C108.394 28.4976 108.363 28.3306 108.299 28.1616V28.1616C108.236 27.9916 108.139 27.8346 108.007 27.6906V27.6906C107.877 27.5466 107.712 27.4276 107.514 27.3366V27.3366C107.316 27.2436 107.086 27.1976 106.825 27.1976V27.1976C106.48 27.1976 106.202 27.2766 105.989 27.4356V27.4356ZM74.971 27.4356C74.758 27.5946 74.592 27.7696 74.472 27.9616V27.9616C74.337 28.1916 74.236 28.4456 74.169 28.7256V28.7256C73.84 30.1736 73.511 31.6486 73.182 33.1516V33.1516C72.853 34.6546 72.532 36.1266 72.218 37.5666V37.5666H71.836L69.907 28.7256C69.862 28.5196 69.787 28.3256 69.682 28.1446V28.1446C69.578 27.9636 69.452 27.8086 69.306 27.6796V27.6796C69.161 27.5506 68.997 27.4486 68.813 27.3746V27.3746C68.63 27.3006 68.433 27.2646 68.225 27.2646V27.2646C67.805 27.2646 67.447 27.4026 67.147 27.6796V27.6796C66.848 27.9566 66.646 28.3056 66.542 28.7256V28.7256C66.385 29.4136 66.222 30.1316 66.054 30.8806V30.8806C65.885 31.6296 65.717 32.3866 65.549 33.1516V33.1516C65.381 33.9166 65.214 34.6726 65.05 35.4226V35.4226C64.885 36.1726 64.732 36.8866 64.59 37.5666V37.5666H64.209L62.257 28.7256C62.189 28.4456 62.088 28.1916 61.954 27.9616V27.9616C61.835 27.7696 61.668 27.5946 61.455 27.4356V27.4356C61.241 27.2766 60.963 27.1976 60.62 27.1976V27.1976C60.358 27.1976 60.127 27.2436 59.929 27.3366V27.3366C59.731 27.4276 59.566 27.5466 59.436 27.6906V27.6906C59.305 27.8346 59.207 27.9916 59.144 28.1616V28.1616C59.081 28.3306 59.049 28.4976 59.049 28.6606V28.6606C59.049 28.7486 59.053 28.8326 59.06 28.9146V28.9146C59.067 28.9956 59.079 29.0656 59.094 29.1256V29.1256C59.108 29.1996 59.124 29.2656 59.138 29.3246V29.3246L62.167 41.3776C62.279 41.6286 62.432 41.8496 62.626 42.0416V42.0416C62.791 42.2116 63.003 42.3646 63.261 42.5016V42.5016C63.518 42.6376 63.834 42.7066 64.209 42.7066V42.7066H64.59C64.964 42.7066 65.269 42.6376 65.504 42.5016V42.5016C65.74 42.3646 65.932 42.2116 66.082 42.0416V42.0416C66.246 41.8496 66.377 41.6286 66.474 41.3776V41.3776C66.721 40.3286 66.981 39.2456 67.254 38.1306V38.1306C67.527 37.0156 67.783 35.9336 68.022 34.8856V34.8856H68.404L69.974 41.3776C70.056 41.6286 70.179 41.8496 70.344 42.0416V42.0416C70.486 42.2116 70.677 42.3646 70.916 42.5016V42.5016C71.156 42.6376 71.462 42.7066 71.836 42.7066V42.7066H72.218C72.591 42.7066 72.904 42.6376 73.154 42.5016V42.5016C73.405 42.3646 73.608 42.2116 73.765 42.0416V42.0416C73.952 41.8496 74.102 41.6286 74.214 41.3776V41.3776L77.288 29.3246C77.303 29.2656 77.317 29.1996 77.333 29.1256V29.1256C77.347 29.0656 77.359 28.9956 77.366 28.9146V28.9146C77.373 28.8326 77.378 28.7486 77.378 28.6606V28.6606C77.378 28.4976 77.345 28.3306 77.282 28.1616V28.1616C77.218 27.9916 77.121 27.8346 76.991 27.6906V27.6906C76.859 27.5466 76.694 27.4276 76.496 27.3366V27.3366C76.298 27.2436 76.069 27.1976 75.807 27.1976V27.1976C75.463 27.1976 75.184 27.2766 74.971 27.4356V27.4356Z"
          fill="white"
        />
      </mask>
      <g mask="url(#mask0_0_777)">
        <path
          fill-rule="evenodd"
          clip-rule="evenodd"
          d="M5.121 79.0106H114.739V-1.00037H5.121V79.0106Z"
          fill="white"
        />
        <path
          fill-rule="evenodd"
          clip-rule="evenodd"
          d="M57.286 44.4686H110.156V25.0826H57.286V44.4686Z"
          fill="white"
        />
      </g>
      <path
        fill-rule="evenodd"
        clip-rule="evenodd"
        d="M62.9259 24.3778C63.3709 24.3778 63.7139 24.3038 63.9559 24.1568C64.1969 24.0098 64.3729 23.8148 64.4819 23.5738C64.5909 23.3318 64.6559 23.0558 64.6749 22.7468C64.6949 22.4368 64.7039 22.1198 64.7039 21.7948V11.7338H65.8979C66.2099 11.7338 66.5239 11.7208 66.8399 11.6948C67.1559 11.6678 67.4419 11.6018 67.6999 11.4958C67.9569 11.3908 68.1659 11.2298 68.3259 11.0148C68.4859 10.7998 68.5659 10.5028 68.5659 10.1258C68.5659 9.73982 68.4859 9.43982 68.3259 9.22482C68.1659 9.00982 67.9569 8.84882 67.6999 8.74282C67.4419 8.63782 67.1559 8.57382 66.8399 8.55082C66.5239 8.52782 66.2099 8.51682 65.8979 8.51682H59.9539C59.6419 8.51682 59.3279 8.52782 59.0119 8.55082C58.6959 8.57382 58.4099 8.63782 58.1519 8.74282C57.8949 8.84882 57.6859 9.00982 57.5259 9.22482C57.3659 9.43982 57.2859 9.73982 57.2859 10.1258C57.2859 10.5028 57.3659 10.7998 57.5259 11.0148C57.6859 11.2298 57.8949 11.3908 58.1519 11.4958C58.4099 11.6018 58.6959 11.6678 59.0119 11.6948C59.3279 11.7208 59.6419 11.7338 59.9539 11.7338H61.1479V21.7948C61.1479 22.1198 61.1569 22.4368 61.1769 22.7468C61.1959 23.0558 61.2609 23.3318 61.3699 23.5738C61.4789 23.8148 61.6549 24.0098 61.8959 24.1568C62.1379 24.3038 62.4809 24.3778 62.9259 24.3778V24.3778ZM75.4799 24.3778C75.6259 24.3778 75.8509 24.3668 76.1569 24.3438C76.4629 24.3208 76.8029 24.2598 77.1779 24.1598C77.5519 24.0608 77.9399 23.9098 78.3419 23.7078C78.7429 23.5058 79.1059 23.2288 79.4309 22.8778C79.7559 22.5268 80.0239 22.0878 80.2339 21.5608C80.4439 21.0348 80.5499 20.3928 80.5499 19.6378V12.7898C80.5499 12.0568 80.4439 11.4328 80.2339 10.9178C80.0239 10.4028 79.7559 9.97382 79.4309 9.62982C79.1059 9.28682 78.7429 9.01682 78.3419 8.82282C77.9399 8.62782 77.5519 8.48082 77.1779 8.38182C76.8029 8.28282 76.4629 8.22182 76.1569 8.19882C75.8509 8.17582 75.6259 8.16382 75.4799 8.16382H75.0899C74.9449 8.16382 74.7199 8.17582 74.4139 8.19882C74.1079 8.22182 73.7659 8.28282 73.3869 8.38182C73.0089 8.48082 72.6189 8.62782 72.2179 8.82282C71.8159 9.01682 71.4489 9.28682 71.1169 9.62982C70.7839 9.97382 70.5109 10.4028 70.2969 10.9178C70.0819 11.4328 69.9749 12.0568 69.9749 12.7898V19.6378C69.9749 20.3928 70.0819 21.0348 70.2969 21.5608C70.5109 22.0878 70.7839 22.5268 71.1169 22.8778C71.4489 23.2288 71.8159 23.5058 72.2179 23.7078C72.6189 23.9098 73.0089 24.0608 73.3869 24.1598C73.7659 24.2598 74.1079 24.3208 74.4139 24.3438C74.7199 24.3668 74.9449 24.3778 75.0899 24.3778H75.4799ZM75.0979 21.5578C74.7029 21.5578 74.3979 21.4808 74.1839 21.3258C73.9699 21.1718 73.8109 20.9978 73.7059 20.8048C73.5849 20.5878 73.5159 20.3368 73.4999 20.0508V12.4908C73.5159 12.2128 73.5849 11.9618 73.7059 11.7378C73.8109 11.5518 73.9699 11.3798 74.1839 11.2218C74.3979 11.0628 74.7029 10.9838 75.0979 10.9838C75.4859 10.9838 75.7839 11.0628 75.9939 11.2218C76.2039 11.3798 76.3619 11.5518 76.4659 11.7378C76.5799 11.9618 76.6479 12.2128 76.6719 12.4908V20.0508C76.6479 20.3368 76.5799 20.5878 76.4659 20.8048C76.3619 20.9978 76.2039 21.1718 75.9939 21.3258C75.7839 21.4808 75.4859 21.5578 75.0979 21.5578V21.5578ZM88.8329 24.3778C89.6409 24.3778 90.3809 24.2758 91.0519 24.0728C91.7229 23.8688 92.2999 23.5658 92.7829 23.1628C93.2659 22.7598 93.6379 22.2588 93.9009 21.6598C94.1639 21.0618 94.2959 20.3628 94.2959 19.5648V10.7898C94.2959 10.4598 94.2779 10.1368 94.2429 9.82282C94.2079 9.50782 94.1249 9.22782 93.9959 8.98182C93.8659 8.73582 93.6719 8.53882 93.4129 8.38882C93.1539 8.23882 92.7969 8.16382 92.3409 8.16382C91.8779 8.16382 91.5169 8.23882 91.2579 8.38882C90.9989 8.53882 90.8049 8.73582 90.6749 8.98182C90.5459 9.22782 90.4649 9.50782 90.4339 9.82282C90.4019 10.1368 90.3869 10.4598 90.3869 10.7898V19.8638C90.3709 20.2018 90.3039 20.5008 90.1869 20.7618C90.1389 20.8768 90.0769 20.9888 89.9979 21.0958C89.9199 21.2038 89.8269 21.2998 89.7219 21.3838C89.6159 21.4678 89.4879 21.5358 89.3389 21.5858C89.1899 21.6348 89.0209 21.6598 88.8329 21.6598C88.6439 21.6598 88.4769 21.6348 88.3319 21.5858C88.1869 21.5358 88.0609 21.4678 87.9549 21.3838C87.8489 21.2998 87.7569 21.2038 87.6789 21.0958C87.5999 20.9888 87.5369 20.8768 87.4899 20.7618C87.3729 20.5008 87.3019 20.2018 87.2779 19.8638V10.7898C87.2779 10.4598 87.2629 10.1368 87.2309 9.82282C87.1999 9.50782 87.1189 9.22782 86.9899 8.98182C86.8599 8.73582 86.6639 8.53882 86.4009 8.38882C86.1379 8.23882 85.7789 8.16382 85.3239 8.16382C84.8689 8.16382 84.5109 8.23882 84.2519 8.38882C83.9929 8.53882 83.7989 8.73582 83.6689 8.98182C83.5399 9.22782 83.4579 9.50782 83.4219 9.82282C83.3869 10.1368 83.3689 10.4598 83.3689 10.7898V19.5648C83.3689 20.3398 83.5009 21.0268 83.7639 21.6258C84.0269 22.2248 84.3999 22.7268 84.8819 23.1338C85.3649 23.5408 85.9399 23.8498 86.6069 24.0608C87.2739 24.2718 88.0159 24.3778 88.8329 24.3778V24.3778ZM106.203 24.3778C106.433 24.3778 106.657 24.3528 106.876 24.3028C107.094 24.2528 107.289 24.1708 107.462 24.0558C107.634 23.9398 107.774 23.7908 107.881 23.6058C107.989 23.4218 108.042 23.1958 108.042 22.9268C108.042 22.8428 108.027 22.7328 107.996 22.5988C107.966 22.4648 107.858 22.3048 107.674 22.1208C107.628 22.0748 107.582 22.0208 107.536 21.9598C107.49 21.8978 107.467 21.8218 107.467 21.7288V20.0938C107.467 19.5948 107.397 19.1578 107.255 18.7818C107.113 18.4048 106.931 18.0828 106.709 17.8138C106.487 17.5458 106.238 17.3248 105.962 17.1518C105.686 16.9788 105.414 16.8388 105.146 16.7318C105.567 16.6088 105.933 16.4478 106.243 16.2478C106.554 16.0488 106.816 15.8298 107.031 15.5918C107.245 15.3538 107.418 15.1038 107.548 14.8428C107.678 14.5818 107.782 14.3308 107.858 14.0888C107.935 13.8468 107.985 13.6248 108.008 13.4208C108.031 13.2178 108.042 13.0548 108.042 12.9318C108.042 12.3328 107.969 11.8068 107.824 11.3538C107.678 10.9008 107.487 10.5078 107.249 10.1738C107.012 9.83982 106.741 9.55982 106.439 9.33282C106.136 9.10682 105.828 8.91682 105.514 8.76282C104.77 8.40982 103.927 8.20982 102.985 8.16382H99.1919C98.7629 8.16382 98.4319 8.23882 98.1979 8.38882C97.9639 8.53882 97.7939 8.73582 97.6859 8.98182C97.5789 9.22782 97.5159 9.50782 97.4969 9.82282C97.4779 10.1368 97.4679 10.4598 97.4679 10.7898V21.6138C97.4679 21.9518 97.4779 22.2818 97.4969 22.6048C97.5159 22.9268 97.5789 23.2128 97.6859 23.4628C97.7939 23.7118 97.9639 23.9118 98.1979 24.0608C98.4319 24.2108 98.7629 24.2858 99.1919 24.2858C99.6289 24.2858 99.9659 24.2108 100.204 24.0608C100.441 23.9118 100.613 23.7118 100.721 23.4628C100.828 23.2128 100.891 22.9268 100.91 22.6048C100.93 22.2818 100.939 21.9518 100.939 21.6138V17.7678H102.226C102.594 17.7678 102.893 17.8258 103.123 17.9408C103.353 18.0558 103.533 18.2168 103.663 18.4248C103.793 18.6318 103.881 18.8768 103.927 19.1618C103.973 19.4458 103.996 19.7568 103.996 20.0938V22.5358C103.996 22.8348 104.063 23.0998 104.198 23.3298C104.332 23.5598 104.506 23.7518 104.72 23.9058C104.935 24.0588 105.173 24.1758 105.433 24.2568C105.694 24.3378 105.95 24.3778 106.203 24.3778V24.3778ZM102.51 15.2138H100.993V10.9838H102.599C102.956 11.0068 103.276 11.0898 103.558 11.2328C103.677 11.2928 103.794 11.3718 103.91 11.4698C104.025 11.5678 104.127 11.6888 104.216 11.8318C104.306 11.9758 104.378 12.1428 104.434 12.3358C104.49 12.5278 104.517 12.7478 104.517 12.9968C104.517 13.2758 104.49 13.5208 104.434 13.7318C104.378 13.9428 104.302 14.1278 104.205 14.2858C104.108 14.4448 104.001 14.5768 103.882 14.6818C103.763 14.7878 103.64 14.8748 103.514 14.9418C103.216 15.1078 102.881 15.1988 102.51 15.2138V15.2138Z"
        fill="white"
      />
      <mask
        id="mask1_0_777"
        style="mask-type: alpha"
        maskUnits="userSpaceOnUse"
        x="57"
        y="8"
        width="52"
        height="17"
      >
        <path
          fill-rule="evenodd"
          clip-rule="evenodd"
          d="M99.192 8.16467C98.763 8.16467 98.431 8.23967 98.198 8.38867V8.38867C97.964 8.53867 97.794 8.73567 97.686 8.98167V8.98167C97.579 9.22767 97.516 9.50767 97.497 9.82267V9.82267C97.477 10.1377 97.468 10.4597 97.468 10.7897V10.7897V21.6137C97.468 21.9517 97.477 22.2817 97.497 22.6037V22.6037C97.516 22.9277 97.579 23.2127 97.686 23.4627V23.4627C97.794 23.7117 97.964 23.9117 98.198 24.0607V24.0607C98.431 24.2107 98.763 24.2857 99.192 24.2857V24.2857C99.629 24.2857 99.966 24.2107 100.203 24.0607V24.0607C100.441 23.9117 100.614 23.7117 100.721 23.4627V23.4627C100.828 23.2127 100.891 22.9277 100.911 22.6037V22.6037C100.93 22.2817 100.939 21.9517 100.939 21.6137V21.6137V17.7687H102.227C102.594 17.7687 102.893 17.8257 103.123 17.9407V17.9407C103.352 18.0567 103.532 18.2177 103.663 18.4247V18.4247C103.793 18.6317 103.882 18.8777 103.928 19.1617V19.1617C103.973 19.4447 103.996 19.7567 103.996 20.0937V20.0937V22.5357C103.996 22.8347 104.063 23.0997 104.198 23.3307V23.3307C104.332 23.5597 104.506 23.7527 104.72 23.9057V23.9057C104.935 24.0597 105.172 24.1767 105.433 24.2577V24.2577C105.693 24.3377 105.95 24.3777 106.203 24.3777V24.3777C106.433 24.3777 106.657 24.3527 106.876 24.3037V24.3037C107.094 24.2527 107.289 24.1707 107.462 24.0557V24.0557C107.634 23.9407 107.774 23.7907 107.881 23.6067V23.6067C107.988 23.4217 108.042 23.1957 108.042 22.9277V22.9277C108.042 22.8427 108.027 22.7327 107.996 22.5987V22.5987C107.966 22.4647 107.858 22.3057 107.674 22.1207V22.1207C107.628 22.0747 107.582 22.0207 107.536 21.9597V21.9597C107.491 21.8987 107.467 21.8207 107.467 21.7297V21.7297V20.0937C107.467 19.5957 107.396 19.1577 107.255 18.7817V18.7817C107.113 18.4057 106.931 18.0827 106.708 17.8147V17.8147C106.486 17.5457 106.238 17.3247 105.962 17.1517V17.1517C105.686 16.9787 105.414 16.8397 105.146 16.7317V16.7317C105.567 16.6087 105.933 16.4467 106.243 16.2487V16.2487C106.554 16.0487 106.816 15.8297 107.031 15.5917V15.5917C107.245 15.3537 107.418 15.1047 107.548 14.8437V14.8437C107.678 14.5827 107.781 14.3307 107.858 14.0887V14.0887C107.935 13.8467 107.985 13.6247 108.007 13.4217V13.4217C108.031 13.2177 108.042 13.0547 108.042 12.9317V12.9317C108.042 12.3327 107.969 11.8067 107.824 11.3537V11.3537C107.678 10.9017 107.486 10.5077 107.249 10.1737V10.1737C107.012 9.83967 106.742 9.55967 106.439 9.33267V9.33267C106.136 9.10667 105.827 8.91667 105.513 8.76267V8.76267C104.77 8.41067 103.928 8.21067 102.985 8.16467V8.16467H99.192ZM100.993 10.9837H102.599C102.956 11.0067 103.276 11.0897 103.559 11.2327V11.2327C103.677 11.2927 103.794 11.3717 103.91 11.4707V11.4707C104.025 11.5687 104.127 11.6887 104.216 11.8317V11.8317C104.305 11.9747 104.378 12.1437 104.433 12.3347V12.3347C104.489 12.5277 104.517 12.7487 104.517 12.9977V12.9977C104.517 13.2757 104.489 13.5217 104.433 13.7317V13.7317C104.378 13.9437 104.302 14.1277 104.205 14.2867V14.2867C104.108 14.4447 104 14.5767 103.882 14.6827V14.6827C103.763 14.7877 103.639 14.8737 103.514 14.9427V14.9427C103.216 15.1077 102.882 15.1987 102.51 15.2137V15.2137H100.993V10.9837ZM91.258 8.38867C90.999 8.53867 90.805 8.73567 90.675 8.98167V8.98167C90.545 9.22767 90.465 9.50767 90.434 9.82267V9.82267C90.402 10.1377 90.387 10.4597 90.387 10.7897V10.7897V19.8637C90.371 20.2017 90.304 20.5007 90.186 20.7617V20.7617C90.139 20.8767 90.077 20.9887 89.998 21.0957V21.0957C89.92 21.2037 89.827 21.2987 89.721 21.3837V21.3837C89.616 21.4687 89.488 21.5357 89.339 21.5857V21.5857C89.19 21.6357 89.021 21.6597 88.833 21.6597V21.6597C88.644 21.6597 88.477 21.6357 88.332 21.5857V21.5857C88.187 21.5357 88.061 21.4687 87.955 21.3837V21.3837C87.849 21.2987 87.757 21.2037 87.679 21.0957V21.0957C87.6 20.9887 87.538 20.8767 87.49 20.7617V20.7617C87.372 20.5007 87.302 20.2017 87.278 19.8637V19.8637V10.7897C87.278 10.4597 87.262 10.1377 87.231 9.82267V9.82267C87.2 9.50767 87.119 9.22767 86.99 8.98167V8.98167C86.86 8.73567 86.664 8.53867 86.401 8.38867V8.38867C86.138 8.23967 85.779 8.16467 85.324 8.16467V8.16467C84.868 8.16467 84.511 8.23967 84.253 8.38867V8.38867C83.993 8.53867 83.799 8.73567 83.669 8.98167V8.98167C83.54 9.22767 83.458 9.50767 83.422 9.82267V9.82267C83.387 10.1377 83.369 10.4597 83.369 10.7897V10.7897V19.5647C83.369 20.3397 83.5 21.0277 83.764 21.6257V21.6257C84.027 22.2247 84.399 22.7277 84.883 23.1347V23.1347C85.365 23.5407 85.94 23.8497 86.607 24.0607V24.0607C87.274 24.2727 88.016 24.3777 88.833 24.3777V24.3777C89.641 24.3777 90.381 24.2767 91.052 24.0727V24.0727C91.723 23.8697 92.3 23.5657 92.783 23.1627V23.1627C93.265 22.7597 93.639 22.2597 93.902 21.6597V21.6597C94.164 21.0617 94.296 20.3627 94.296 19.5647V19.5647V10.7897C94.296 10.4597 94.278 10.1377 94.243 9.82267V9.82267C94.208 9.50767 94.125 9.22767 93.995 8.98167V8.98167C93.866 8.73567 93.672 8.53867 93.413 8.38867V8.38867C93.154 8.23967 92.796 8.16467 92.341 8.16467V8.16467C91.878 8.16467 91.517 8.23967 91.258 8.38867V8.38867ZM75.091 8.16467C74.945 8.16467 74.72 8.17567 74.414 8.19867V8.19867C74.108 8.22067 73.766 8.28267 73.387 8.38167V8.38167C73.009 8.48167 72.619 8.62767 72.218 8.82267V8.82267C71.816 9.01767 71.449 9.28667 71.116 9.62967V9.62967C70.784 9.97367 70.51 10.4027 70.296 10.9187V10.9187C70.082 11.4337 69.975 12.0567 69.975 12.7907V12.7907V19.6377C69.975 20.3927 70.082 21.0347 70.296 21.5607V21.5607C70.51 22.0877 70.784 22.5267 71.116 22.8777V22.8777C71.449 23.2287 71.816 23.5057 72.218 23.7087V23.7087C72.619 23.9097 73.009 24.0607 73.387 24.1607V24.1607C73.766 24.2597 74.108 24.3207 74.414 24.3437V24.3437C74.72 24.3667 74.945 24.3777 75.091 24.3777V24.3777H75.48C75.625 24.3777 75.851 24.3667 76.157 24.3437V24.3437C76.463 24.3207 76.803 24.2597 77.178 24.1607V24.1607C77.552 24.0607 77.94 23.9097 78.341 23.7087V23.7087C78.743 23.5057 79.106 23.2287 79.431 22.8777V22.8777C79.756 22.5267 80.023 22.0877 80.234 21.5607V21.5607C80.445 21.0347 80.549 20.3927 80.549 19.6377V19.6377V12.7907C80.549 12.0567 80.445 11.4337 80.234 10.9187V10.9187C80.023 10.4027 79.756 9.97367 79.431 9.62967V9.62967C79.106 9.28667 78.743 9.01767 78.341 8.82267V8.82267C77.94 8.62767 77.552 8.48167 77.178 8.38167V8.38167C76.803 8.28267 76.463 8.22067 76.157 8.19867V8.19867C75.851 8.17567 75.625 8.16467 75.48 8.16467V8.16467H75.091ZM74.184 21.3257C73.97 21.1717 73.811 20.9977 73.706 20.8037V20.8037C73.585 20.5877 73.516 20.3367 73.5 20.0507V20.0507V12.4917C73.516 12.2127 73.585 11.9617 73.706 11.7377V11.7377C73.811 11.5517 73.97 11.3797 74.184 11.2217V11.2217C74.398 11.0637 74.703 10.9837 75.098 10.9837V10.9837C75.486 10.9837 75.785 11.0637 75.994 11.2217V11.2217C76.204 11.3797 76.361 11.5517 76.467 11.7377V11.7377C76.579 11.9617 76.648 12.2127 76.672 12.4917V12.4917V20.0507C76.648 20.3367 76.579 20.5877 76.467 20.8037V20.8037C76.361 20.9977 76.204 21.1717 75.994 21.3257V21.3257C75.785 21.4807 75.486 21.5587 75.098 21.5587V21.5587C74.703 21.5587 74.398 21.4807 74.184 21.3257V21.3257ZM59.954 8.51667C59.642 8.51667 59.328 8.52767 59.012 8.55067V8.55067C58.696 8.57267 58.41 8.63767 58.153 8.74267V8.74267C57.895 8.84967 57.686 9.00967 57.526 9.22467V9.22467C57.366 9.43967 57.287 9.74067 57.287 10.1257V10.1257C57.287 10.5037 57.366 10.7997 57.526 11.0147V11.0147C57.686 11.2297 57.895 11.3907 58.153 11.4967V11.4967C58.41 11.6027 58.696 11.6687 59.012 11.6947V11.6947C59.328 11.7217 59.642 11.7337 59.954 11.7337V11.7337H61.148V21.7947C61.148 22.1197 61.157 22.4367 61.177 22.7467V22.7467C61.196 23.0557 61.26 23.3327 61.37 23.5737V23.5737C61.479 23.8157 61.654 24.0097 61.897 24.1567V24.1567C62.138 24.3047 62.482 24.3777 62.926 24.3777V24.3777C63.371 24.3777 63.714 24.3047 63.956 24.1567V24.1567C64.197 24.0097 64.372 23.8157 64.482 23.5737V23.5737C64.591 23.3327 64.656 23.0557 64.675 22.7467V22.7467C64.695 22.4367 64.705 22.1197 64.705 21.7947V21.7947V11.7337H65.898C66.209 11.7337 66.523 11.7217 66.839 11.6947V11.6947C67.155 11.6687 67.442 11.6027 67.7 11.4967V11.4967C67.957 11.3907 68.166 11.2297 68.325 11.0147V11.0147C68.486 10.7997 68.566 10.5037 68.566 10.1257V10.1257C68.566 9.74067 68.486 9.43967 68.325 9.22467V9.22467C68.166 9.00967 67.957 8.84967 67.7 8.74267V8.74267C67.442 8.63767 67.155 8.57267 66.839 8.55067V8.55067C66.523 8.52767 66.209 8.51667 65.898 8.51667V8.51667H59.954Z"
          fill="white"
        />
      </mask>
      <g mask="url(#mask1_0_777)">
        <path
          fill-rule="evenodd"
          clip-rule="evenodd"
          d="M5.121 79.0106H114.739V-1.00037H5.121V79.0106Z"
          fill="white"
        />
        <path
          fill-rule="evenodd"
          clip-rule="evenodd"
          d="M55.524 26.1396H109.804V6.40161H55.524V26.1396Z"
          fill="white"
        />
      </g>
      <mask
        id="mask2_0_777"
        style="mask-type: alpha"
        maskUnits="userSpaceOnUse"
        x="0"
        y="0"
        width="52"
        height="45"
      >
        <path
          fill-rule="evenodd"
          clip-rule="evenodd"
          d="M0 0.251221H51.3454V44.0282H0V0.251221Z"
          fill="white"
        />
      </mask>
      <g mask="url(#mask2_0_777)">
        <path
          fill-rule="evenodd"
          clip-rule="evenodd"
          d="M18.6837 6.70724C20.4277 10.8112 22.1417 19.9742 22.1417 19.9742C22.1417 19.9742 23.0177 7.71224 28.8797 7.76124C34.8537 7.81124 36.7167 20.5482 36.7167 20.5482C36.7167 20.5482 37.9077 10.2782 41.9797 8.52224C46.2647 6.67324 51.6957 8.37225 51.3277 17.7682C50.9137 28.3342 42.4097 44.0282 36.0517 44.0282C29.6937 44.0282 28.7457 28.4792 28.7457 28.4792C28.7457 28.4792 25.9347 44.0562 19.2267 43.9532C14.4487 43.8802 13.4577 42.1602 6.3757 29.9152C0.752697 20.1932 -3.8583 6.08124 4.8237 1.64724C12.4247 -2.14276 16.9117 2.53924 18.6837 6.70724"
          fill="url(#paint0_linear_0_777)"
        />
      </g>
      <defs>
        <linearGradient
          id="paint0_linear_0_777"
          x1="-4.9361"
          y1="23.8764"
          x2="18.0812"
          y2="59.7355"
          gradientUnits="userSpaceOnUse"
        >
          <stop stop-color="white" />
          <stop offset="0.597453" stop-color="white" stop-opacity="0.820632" />
          <stop offset="1" stop-color="white" stop-opacity="0.01" />
        </linearGradient>
      </defs>
    </svg>