<svg _ngcontent-ng-c2518083192="" width="148" height="60" viewBox="0 0 148 60" fill="none" xmlns="http://www.w3.org/2000/svg"><path _ngcontent-ng-c2518083192="" d="M25.3922 8.77275C27.7631 14.3533 30.0932 26.8077 30.0932 26.8077C30.0932 26.8077 31.2816 10.1417 39.2505 10.2058C47.3709 10.2757 49.899 27.5883 49.899 27.5883C49.899 27.5883 51.5185 13.631 57.0524 11.2426C62.8777 8.73197 70.2583 11.0388 69.7573 23.8077C69.1922 38.1669 57.635 59.499 48.9961 59.499C40.3573 59.499 39.0641 38.365 39.0641 38.365C39.0641 38.365 35.2427 59.5397 26.1262 59.3999C19.6311 59.3009 18.2854 56.9592 8.65631 40.3164C1.02525 27.1048 -5.24271 7.92226 6.5534 1.89896C16.8874 -3.25056 22.9864 3.11061 25.3922 8.77857V8.77275Z" fill="url(#paint0_linear_0_45)"></path><path _ngcontent-ng-c2518083192="" fill-rule="evenodd" clip-rule="evenodd" d="M113.499 58.2758C113.691 58.2758 113.988 58.2583 114.39 58.2292C114.792 58.2 115.241 58.1185 115.73 57.9845C116.225 57.8505 116.732 57.6525 117.262 57.3845C117.792 57.1166 118.264 56.7496 118.695 56.2835C119.12 55.8175 119.476 55.235 119.75 54.5301C120.023 53.8311 120.163 52.9748 120.163 51.9729V42.868C120.163 41.8952 120.023 41.0622 119.75 40.3806C119.476 39.6933 119.12 39.1224 118.695 38.668C118.27 38.2136 117.792 37.8525 117.262 37.5962C116.732 37.3399 116.225 37.1418 115.73 37.0078C115.235 36.8738 114.792 36.7923 114.39 36.7632C113.988 36.734 113.691 36.7166 113.499 36.7166H112.986C112.794 36.7166 112.497 36.734 112.095 36.7632C111.693 36.7923 111.245 36.8738 110.744 37.0078C110.249 37.1418 109.736 37.334 109.206 37.5962C108.676 37.8525 108.198 38.2136 107.761 38.668C107.324 39.1224 106.963 39.6933 106.683 40.3806C106.404 41.068 106.264 41.8952 106.264 42.868V51.9729C106.264 52.9748 106.404 53.8311 106.683 54.5301C106.963 55.2292 107.324 55.8117 107.761 56.2835C108.198 56.7496 108.682 57.1166 109.206 57.3845C109.736 57.6525 110.243 57.8564 110.744 57.9845C111.239 58.1185 111.693 58.2 112.095 58.2292C112.497 58.2583 112.794 58.2758 112.986 58.2758H113.499ZM130.847 57.9962C130.526 58.1826 130.113 58.2758 129.606 58.2758H129.111C128.604 58.2758 128.173 58.1826 127.823 57.9962C127.474 57.8098 127.183 57.6059 126.961 57.3729C126.699 57.1107 126.489 56.8136 126.338 56.47L122.219 40.0894C122.214 40.0644 122.208 40.0384 122.202 40.0114L122.202 40.0107L122.202 40.0106L122.202 40.0104C122.188 39.9495 122.173 39.8839 122.161 39.8156C122.138 39.734 122.126 39.6408 122.115 39.5301C122.097 39.4195 122.097 39.3088 122.097 39.1865C122.097 38.9651 122.138 38.7437 122.225 38.5107C122.313 38.2777 122.441 38.068 122.621 37.87C122.796 37.6719 123.023 37.5146 123.291 37.3865C123.559 37.2641 123.874 37.2 124.229 37.2C124.695 37.2 125.074 37.3107 125.365 37.5263C125.65 37.7418 125.878 37.9806 126.041 38.2428C126.227 38.5515 126.361 38.901 126.454 39.2797L129.105 51.2971H129.623C129.816 50.3767 130.025 49.4039 130.247 48.3845C130.405 47.657 130.566 46.9236 130.727 46.1863L130.73 46.1748L130.731 46.1703L130.922 45.2971C131.079 44.5827 131.238 43.8709 131.396 43.1639C131.468 42.8448 131.539 42.5267 131.61 42.2098C131.837 41.1903 132.058 40.2117 132.274 39.2797C132.414 38.7088 132.687 38.2369 133.095 37.8583C133.503 37.4797 133.986 37.2933 134.557 37.2933C134.837 37.2933 135.105 37.3457 135.355 37.4447C135.606 37.5437 135.827 37.6835 136.025 37.8583C136.223 38.0389 136.398 38.2486 136.538 38.4933C136.678 38.7437 136.783 39.0059 136.841 39.2855L139.462 51.303H139.981C140.406 49.3457 140.843 47.3476 141.291 45.303C141.734 43.2583 142.183 41.2544 142.631 39.2855C142.724 38.9068 142.864 38.5573 143.045 38.2486C143.202 37.9865 143.429 37.7476 143.72 37.5321C144.012 37.3166 144.39 37.2059 144.856 37.2059C145.212 37.2059 145.526 37.2641 145.794 37.3923C146.062 37.5204 146.283 37.6777 146.464 37.8758C146.639 38.0738 146.773 38.2835 146.86 38.5166C146.948 38.7437 146.988 38.9709 146.988 39.1923C146.988 39.3088 146.983 39.4253 146.971 39.536C146.959 39.6466 146.942 39.7399 146.924 39.8214C146.912 39.8933 146.898 39.957 146.884 40.0163L146.884 40.0165L146.884 40.0168C146.877 40.0437 146.871 40.0698 146.866 40.0952L142.689 56.4758C142.538 56.8195 142.334 57.1166 142.078 57.3787C141.862 57.6059 141.583 57.8156 141.245 58.002C140.901 58.1884 140.476 58.2816 139.969 58.2816H139.45C138.938 58.2816 138.524 58.1884 138.198 58.002C137.878 57.8156 137.616 57.6117 137.423 57.3787C137.202 57.1166 137.033 56.8195 136.922 56.4758L134.79 47.6505H134.272C133.946 49.0719 133.602 50.5457 133.229 52.0602C132.856 53.5748 132.507 55.0428 132.169 56.47C132.035 56.8136 131.854 57.1107 131.633 57.3729C131.429 57.6 131.167 57.8098 130.847 57.9962ZM112.357 54.1399C112.619 54.3437 112.986 54.4428 113.464 54.4428C113.936 54.4428 114.291 54.3437 114.548 54.1399C114.804 53.936 114.99 53.7088 115.118 53.4525C115.258 53.167 115.34 52.8408 115.369 52.4622V42.5301C115.34 42.1632 115.252 41.8369 115.118 41.5399C114.99 41.301 114.804 41.0738 114.548 40.8641C114.291 40.6544 113.942 40.5496 113.464 40.5496C112.986 40.5496 112.614 40.6544 112.357 40.8641C112.101 41.068 111.909 41.2952 111.781 41.5399C111.635 41.8369 111.548 42.1632 111.53 42.5301V52.4622C111.553 52.8408 111.635 53.167 111.781 53.4525C111.909 53.7088 112.101 53.936 112.357 54.1399ZM88.6893 57.9962C88.3689 58.1826 87.9553 58.2758 87.4485 58.2758H86.9534C86.4466 58.2758 86.0155 58.1826 85.666 57.9962C85.3165 57.8098 85.0252 57.6059 84.8039 57.3729C84.5417 57.1107 84.332 56.8136 84.1806 56.47L80.0621 40.0894C80.0567 40.0642 80.0508 40.0379 80.0446 40.0107C80.0308 39.9497 80.016 39.8841 80.0039 39.8156C79.9806 39.734 79.9689 39.6408 79.9573 39.5301C79.9398 39.4195 79.9398 39.3088 79.9398 39.1865C79.9398 38.9651 79.9806 38.7437 80.068 38.5107C80.1553 38.2777 80.2893 38.068 80.4641 37.87C80.6388 37.6719 80.866 37.5146 81.134 37.3865C81.4019 37.2641 81.7165 37.2 82.0718 37.2C82.5379 37.2 82.9165 37.3107 83.2078 37.5263C83.4932 37.7418 83.7204 37.9806 83.8835 38.2428C84.0699 38.5515 84.2039 38.901 84.2971 39.2797L86.9476 51.2971H87.466C87.6583 50.3767 87.868 49.4039 88.0893 48.3845C88.2484 47.6518 88.4105 46.9131 88.5735 46.1705C88.6372 45.88 88.7011 45.5888 88.765 45.2971C88.9216 44.5827 89.0809 43.871 89.2391 43.164C89.3106 42.8449 89.3818 42.5268 89.4524 42.2098C89.6796 41.1903 89.901 40.2117 90.1165 39.2797C90.2563 38.7088 90.5301 38.2369 90.9379 37.8583C91.3456 37.4797 91.8291 37.2933 92.4 37.2933C92.6796 37.2933 92.9476 37.3457 93.1981 37.4447C93.4485 37.5437 93.6699 37.6835 93.868 37.8583C94.066 38.0389 94.2408 38.2486 94.3806 38.4933C94.5204 38.7437 94.6252 39.0059 94.6835 39.2855L97.3049 51.303H97.8233C98.2485 49.3457 98.6854 47.3476 99.134 45.303C99.5767 43.2583 100.025 41.2544 100.474 39.2855C100.567 38.9068 100.707 38.5573 100.887 38.2486C101.045 37.9865 101.272 37.7476 101.563 37.5321C101.854 37.3166 102.233 37.2059 102.699 37.2059C103.054 37.2059 103.369 37.2641 103.637 37.3923C103.905 37.5204 104.132 37.6777 104.307 37.8758C104.482 38.0738 104.616 38.2835 104.703 38.5166C104.79 38.7437 104.831 38.9709 104.831 39.1923C104.831 39.3088 104.825 39.4253 104.814 39.536C104.802 39.6466 104.784 39.7399 104.767 39.8214C104.755 39.8935 104.74 39.9574 104.726 40.0168C104.72 40.0437 104.714 40.0697 104.709 40.0952L100.532 56.4758C100.381 56.8195 100.177 57.1166 99.9204 57.3787C99.7049 57.6059 99.4252 57.8156 99.0874 58.002C98.7437 58.1884 98.3184 58.2816 97.8116 58.2816H97.2932C96.7806 58.2816 96.367 58.1884 96.0408 58.002C95.7204 57.8156 95.4583 57.6117 95.266 57.3787C95.0447 57.1166 94.8757 56.8195 94.765 56.4758L92.633 47.6505H92.1146C91.7883 49.0719 91.4447 50.5457 91.0718 52.0602C90.699 53.5748 90.3495 55.0428 90.0116 56.47C89.8777 56.8136 89.6971 57.1107 89.4757 57.3729C89.2718 57.6 89.0097 57.8098 88.6893 57.9962Z" fill="black"></path><path _ngcontent-ng-c2518083192="" fill-rule="evenodd" clip-rule="evenodd" d="M102.245 33.361C102.443 33.361 102.751 33.3436 103.165 33.3144C103.579 33.2853 104.045 33.1979 104.551 33.064C105.058 32.93 105.588 32.7261 106.136 32.4465C106.683 32.1727 107.173 31.7941 107.616 31.3164C108.058 30.8387 108.419 30.2445 108.705 29.528C108.99 28.8115 109.136 27.9377 109.136 26.9125V17.6038C109.136 16.6076 108.99 15.7572 108.705 15.0581C108.419 14.3591 108.058 13.7766 107.616 13.3047C107.173 12.8387 106.678 12.4717 106.136 12.2096C105.588 11.9475 105.064 11.7436 104.551 11.6096C104.045 11.4756 103.579 11.3941 103.165 11.3591C102.751 11.33 102.443 11.3125 102.245 11.3125H101.715C101.517 11.3125 101.208 11.33 100.794 11.3591C100.381 11.3882 99.9146 11.4756 99.3961 11.6096C98.8835 11.7436 98.3534 11.9416 97.8058 12.2096C97.2583 12.4717 96.7631 12.8387 96.3087 13.3047C95.8544 13.7708 95.4874 14.3533 95.1961 15.0581C94.9049 15.7572 94.7592 16.6076 94.7592 17.6038V26.9125C94.7592 27.9377 94.9049 28.8115 95.1961 29.528C95.4874 30.2445 95.8602 30.8387 96.3087 31.3164C96.7573 31.7941 97.2583 32.1669 97.8058 32.4465C98.3534 32.7203 98.8835 32.9242 99.3961 33.064C99.9087 33.1979 100.375 33.2795 100.794 33.3144C101.208 33.3436 101.517 33.361 101.715 33.361H102.245ZM144.92 33.262C144.623 33.3261 144.32 33.361 144.006 33.361L144.017 33.3494C143.674 33.3494 143.324 33.297 142.969 33.1863C142.614 33.0756 142.293 32.9183 142.002 32.7086C141.711 32.5047 141.472 32.2426 141.291 31.928C141.111 31.6193 141.017 31.2581 141.017 30.8504V27.53C141.017 27.0698 140.988 26.6445 140.924 26.2601C140.86 25.8756 140.738 25.5377 140.563 25.2581C140.388 24.9727 140.144 24.7572 139.829 24.5999C139.52 24.4426 139.113 24.3669 138.612 24.3669H136.864V29.5921C136.864 30.0523 136.847 30.5008 136.823 30.9377C136.8 31.3746 136.713 31.7649 136.567 32.1028C136.421 32.4407 136.183 32.7144 135.862 32.9183C135.542 33.1222 135.07 33.2212 134.487 33.2212C133.905 33.2212 133.456 33.1222 133.136 32.9183C132.821 32.7144 132.588 32.4407 132.443 32.1028C132.297 31.7649 132.21 31.3746 132.186 30.9377C132.157 30.5008 132.146 30.0523 132.146 29.5921V14.8775C132.146 14.429 132.163 13.9863 132.186 13.561C132.21 13.1358 132.297 12.7513 132.443 12.4193C132.588 12.0873 132.816 11.8193 133.136 11.6154C133.456 11.4115 133.905 11.3125 134.487 11.3125H139.643C140.924 11.3766 142.072 11.6504 143.08 12.128C143.505 12.3377 143.924 12.5941 144.338 12.9028C144.751 13.2115 145.118 13.5902 145.439 14.0445C145.759 14.4989 146.021 15.029 146.219 15.6465C146.417 16.264 146.517 16.9746 146.517 17.7902C146.517 17.9533 146.499 18.1746 146.47 18.4542C146.441 18.7339 146.371 19.0368 146.266 19.363C146.167 19.6892 146.021 20.0329 145.847 20.3882C145.666 20.7436 145.433 21.0814 145.142 21.4076C144.85 21.728 144.489 22.0251 144.07 22.2989C143.65 22.5727 143.15 22.7882 142.579 22.9572C142.94 23.1028 143.313 23.295 143.685 23.528C144.058 23.761 144.396 24.0581 144.699 24.4251C144.996 24.7921 145.247 25.229 145.439 25.7416C145.631 26.2484 145.73 26.8484 145.73 27.5242V29.7494C145.73 29.8775 145.759 29.9824 145.823 30.064C145.887 30.1513 145.946 30.2212 146.01 30.2853C146.26 30.5358 146.406 30.7572 146.447 30.9377C146.487 31.1241 146.511 31.2698 146.511 31.3863C146.511 31.7533 146.435 32.062 146.289 32.3125C146.144 32.563 145.951 32.7669 145.718 32.9242C145.485 33.0814 145.217 33.1921 144.92 33.262ZM136.922 20.9067H138.984L138.996 20.895C139.503 20.8775 139.957 20.7552 140.359 20.528C140.534 20.4348 140.697 20.3183 140.86 20.1727C141.017 20.0329 141.163 19.8523 141.297 19.6368C141.425 19.4212 141.53 19.1708 141.606 18.8853C141.682 18.5941 141.722 18.262 141.722 17.8834C141.722 17.5455 141.682 17.2484 141.606 16.9863C141.53 16.73 141.431 16.497 141.309 16.3047C141.186 16.1125 141.047 15.9436 140.889 15.8154C140.732 15.6873 140.575 15.5766 140.412 15.495C140.027 15.3028 139.59 15.1863 139.107 15.1572H136.922V20.9067ZM120.396 33.361C121.497 33.361 122.499 33.2212 123.414 32.9475C124.328 32.6737 125.109 32.2601 125.767 31.7125C126.425 31.1649 126.932 30.4834 127.287 29.6678C127.643 28.8523 127.823 27.9028 127.823 26.8193V14.895C127.823 14.4465 127.8 14.0096 127.753 13.5785C127.707 13.1533 127.596 12.7688 127.416 12.4368C127.241 12.1047 126.973 11.8368 126.623 11.6329C126.274 11.429 125.784 11.33 125.167 11.33C124.55 11.33 124.049 11.429 123.693 11.6329C123.344 11.8368 123.076 12.1047 122.901 12.4368C122.726 12.7688 122.616 13.1533 122.575 13.5785C122.534 14.0038 122.511 14.4465 122.511 14.895V27.2271C122.487 27.6873 122.4 28.095 122.237 28.4504C122.173 28.6076 122.085 28.7591 121.981 28.9047C121.876 29.0504 121.748 29.1785 121.602 29.295C121.456 29.4115 121.287 29.4989 121.083 29.5688C120.88 29.6387 120.652 29.6678 120.396 29.6678C120.14 29.6678 119.913 29.6329 119.715 29.5688C119.517 29.4989 119.348 29.4115 119.202 29.295C119.056 29.1785 118.934 29.0504 118.823 28.9047C118.718 28.7591 118.631 28.6076 118.567 28.4504C118.41 28.095 118.311 27.6873 118.282 27.2271V14.895C118.282 14.4465 118.258 14.0096 118.217 13.5785C118.177 13.1533 118.066 12.7688 117.891 12.4368C117.717 12.1047 117.449 11.8368 117.093 11.6329C116.738 11.429 116.249 11.33 115.631 11.33C115.014 11.33 114.524 11.429 114.175 11.6329C113.825 11.8368 113.557 12.1047 113.383 12.4368C113.208 12.7688 113.097 13.1533 113.045 13.5785C112.998 14.0038 112.975 14.4465 112.975 14.895V26.8193C112.975 27.8737 113.155 28.8057 113.511 29.6212C113.866 30.4368 114.373 31.1183 115.031 31.6717C115.689 32.2251 116.47 32.6445 117.373 32.93C118.282 33.2154 119.289 33.361 120.396 33.361ZM100.485 29.2135C100.777 29.4232 101.19 29.528 101.726 29.528V29.5339C102.25 29.5339 102.658 29.429 102.944 29.2193C103.229 29.0096 103.445 28.7708 103.584 28.5086C103.736 28.2115 103.829 27.8737 103.864 27.4834V17.2076C103.829 16.829 103.736 16.4853 103.584 16.1824C103.445 15.9319 103.229 15.6989 102.944 15.4834C102.658 15.2678 102.262 15.163 101.726 15.163C101.19 15.163 100.777 15.2678 100.485 15.4834C100.194 15.6989 99.9728 15.9319 99.833 16.1824C99.6699 16.4853 99.5767 16.829 99.5534 17.2076V27.4775C99.5767 27.8678 99.6699 28.2115 99.833 28.5028C99.9786 28.7649 100.194 29.0038 100.485 29.2135ZM86.5806 33.0581C86.2544 33.262 85.7884 33.361 85.1825 33.361H85.1767C84.5767 33.361 84.1049 33.2562 83.7786 33.0581C83.4466 32.8601 83.2078 32.5921 83.0621 32.2659C82.9165 31.9397 82.8291 31.561 82.8 31.1416C82.7709 30.7222 82.7592 30.2911 82.7592 29.8484V16.1766H81.1398C80.7146 16.1766 80.2893 16.1591 79.8583 16.1242C79.4272 16.0892 79.0369 16.0018 78.6874 15.8562C78.3379 15.7164 78.0524 15.495 77.8369 15.2038C77.6214 14.9067 77.5107 14.5164 77.5107 13.9921C77.5107 13.4678 77.6214 13.0601 77.8369 12.7688C78.0524 12.4775 78.3379 12.262 78.6874 12.1164C79.0369 11.9708 79.4272 11.8834 79.8583 11.8542C80.2893 11.8251 80.7146 11.8076 81.1398 11.8076H89.2194C89.6447 11.8076 90.0699 11.8251 90.501 11.8542C90.932 11.8834 91.3223 11.9708 91.6718 12.1164C92.0214 12.2562 92.3068 12.4775 92.5223 12.7688C92.7379 13.0601 92.8485 13.4737 92.8485 13.9921C92.8485 14.5106 92.7379 14.9125 92.5223 15.2038C92.3068 15.495 92.0214 15.7106 91.6718 15.8562C91.3223 15.996 90.932 16.0892 90.501 16.1242C90.0699 16.1591 89.6447 16.1766 89.2194 16.1766H87.6V29.8484C87.6 30.2911 87.5884 30.7222 87.5592 31.1416C87.5301 31.561 87.4427 31.9397 87.2971 32.2659C87.1456 32.5921 86.9068 32.8601 86.5806 33.0581Z" fill="black"></path><defs _ngcontent-ng-c2518083192=""><linearGradient _ngcontent-ng-c2518083192="" id="paint0_linear_0_45" x1="-31.5925" y1="28.6624" x2="24.0933" y2="104.632" gradientUnits="userSpaceOnUse"><stop _ngcontent-ng-c2518083192="" stop-color="#019CFF"></stop><stop _ngcontent-ng-c2518083192="" offset="0.16" stop-color="#039CFF"></stop><stop _ngcontent-ng-c2518083192="" offset="0.24" stop-color="#0A9FFF"></stop><stop _ngcontent-ng-c2518083192="" offset="0.3" stop-color="#17A4FF"></stop><stop _ngcontent-ng-c2518083192="" offset="0.35" stop-color="#29ACFF"></stop><stop _ngcontent-ng-c2518083192="" offset="0.39" stop-color="#41B5FF"></stop><stop _ngcontent-ng-c2518083192="" offset="0.42" stop-color="#5ABFFF"></stop><stop _ngcontent-ng-c2518083192="" offset="0.48" stop-color="#5DBFFB"></stop><stop _ngcontent-ng-c2518083192="" offset="0.52" stop-color="#68C1F2"></stop><stop _ngcontent-ng-c2518083192="" offset="0.57" stop-color="#7AC3E1"></stop><stop _ngcontent-ng-c2518083192="" offset="0.61" stop-color="#94C7CA"></stop><stop _ngcontent-ng-c2518083192="" offset="0.65" stop-color="#B5CCAD"></stop><stop _ngcontent-ng-c2518083192="" offset="0.69" stop-color="#DCD289"></stop><stop _ngcontent-ng-c2518083192="" offset="0.72" stop-color="#FFD76B"></stop><stop _ngcontent-ng-c2518083192="" offset="0.78" stop-color="#FFD157"></stop><stop _ngcontent-ng-c2518083192="" offset="0.89" stop-color="#FFC426"></stop><stop _ngcontent-ng-c2518083192="" offset="0.96" stop-color="#FFBB05"></stop></linearGradient></defs></svg>